<svg width="24" height="25" viewBox="0 0 24 25" fill="none" xmlns="http://www.w3.org/2000/svg">
<g clip-path="url(#clip0_412_2892)">
<path d="M23.7662 9.7203H22.7996V9.6705H11.9998V14.4704H18.7815C17.7921 17.2646 15.1335 19.2703 11.9998 19.2703C8.02366 19.2703 4.79992 16.0466 4.79992 12.0705C4.79992 8.09433 8.02366 4.87058 11.9998 4.87058C13.8352 4.87058 15.5049 5.56297 16.7763 6.69395L20.1705 3.29981C18.0273 1.30244 15.1605 0.0706635 11.9998 0.0706635C5.37291 0.0706635 0 5.44357 0 12.0705C0 18.6973 5.37291 24.0702 11.9998 24.0702C18.6267 24.0702 23.9996 18.6973 23.9996 12.0705C23.9996 11.2659 23.9168 10.4805 23.7662 9.7203Z" fill="#FFC107"/>
<path d="M1.38278 6.48515L5.32531 9.3765C6.3921 6.73535 8.97565 4.87058 11.999 4.87058C13.8344 4.87058 15.5041 5.56297 16.7755 6.69395L20.1697 3.29981C18.0265 1.30244 15.1597 0.0706635 11.999 0.0706635C7.38988 0.0706635 3.39275 2.67282 1.38278 6.48515Z" fill="#FF3D00"/>
<path d="M12 24.0707C15.0995 24.0707 17.9159 22.8845 20.0452 20.9555L16.3313 17.8128C15.0861 18.7598 13.5644 19.272 12 19.2708C8.87884 19.2708 6.22868 17.2806 5.2303 14.5032L1.31717 17.5182C3.30313 21.4043 7.33627 24.0707 12 24.0707Z" fill="#4CAF50"/>
<path d="M23.7662 9.7203H22.7996V9.6705H11.9998V14.4704H18.7815C18.3082 15.8002 17.4557 16.9623 16.3293 17.813L16.3311 17.8118L20.045 20.9545C19.7823 21.1933 23.9996 18.0704 23.9996 12.0705C23.9996 11.2659 23.9168 10.4805 23.7662 9.7203Z" fill="#1976D2"/>
</g>
<defs>
<clipPath id="clip0_412_2892">
<rect y="0.0706635" width="24" height="24" rx="12" fill="white"/>
</clipPath>
</defs>
</svg>
