<svg width="200" height="42" viewBox="0 0 200 42" fill="none" xmlns="http://www.w3.org/2000/svg">
<path d="M21.0906 11.6995C21.4135 11.1528 21.6168 10.5466 21.6872 9.92032C21.7577 9.29401 21.6938 8.66145 21.4996 8.06353C21.3055 7.46561 20.9854 6.91565 20.5601 6.44919C20.1348 5.98273 19.6138 5.61016 19.0307 5.35557C18.4475 5.10098 17.8153 4.97003 17.1749 4.9712C16.5345 4.97236 15.9001 5.1056 15.3127 5.36231C14.7254 5.61902 14.1981 5.99349 13.7651 6.46151C13.3321 6.92952 13.0029 7.48066 12.7988 8.0793C12.6435 8.34227 0.723541 34.3606 0.624409 34.6491C0.301493 35.1958 0.0982375 35.8019 0.0277822 36.4283C-0.0426732 37.0546 0.0212394 37.6871 0.215389 38.285C0.409539 38.883 0.729604 39.4329 1.15489 39.8994C1.58018 40.3658 2.10123 40.7384 2.68434 40.993C3.26746 41.2476 3.89967 41.3785 4.5401 41.3774C5.18054 41.3762 5.81493 41.243 6.40229 40.9863C6.98964 40.7296 7.51687 40.3551 7.9499 39.8871C8.38293 39.4191 8.71211 38.8679 8.91617 38.2693C9.07275 38.0109 20.9903 11.9912 21.0906 11.6995Z" fill="url(#paint0_linear_57_42298)"/>
<path d="M33.9973 19.0713C34.3206 18.5246 34.5243 17.9185 34.5951 17.2921C34.6659 16.6657 34.6023 16.033 34.4084 15.4349C34.2145 14.8367 33.8946 14.2866 33.4694 13.8199C33.0442 13.3532 32.5232 12.9803 31.94 12.7255C31.3569 12.4707 30.7246 12.3396 30.0841 12.3406C29.4435 12.3416 28.809 12.4748 28.2215 12.7314C27.634 12.9881 27.1066 13.3626 26.6735 13.8307C26.2403 14.2987 25.9111 14.85 25.707 15.4487C25.5492 15.7103 19.2894 29.3799 19.1891 29.6677C18.8658 30.2143 18.6621 30.8205 18.5913 31.4469C18.5205 32.0732 18.5841 32.706 18.778 33.3041C18.972 33.9022 19.2919 34.4524 19.717 34.9191C20.1422 35.3858 20.6632 35.7586 21.2464 36.0134C21.8295 36.2682 22.4618 36.3994 23.1024 36.3983C23.7429 36.3973 24.3774 36.2642 24.9649 36.0075C25.5524 35.7508 26.0798 35.3763 26.513 34.9083C26.9461 34.4402 27.2754 33.889 27.4795 33.2902C27.6353 33.0291 33.8968 19.362 33.9973 19.0713Z" fill="url(#paint1_linear_57_42298)"/>
<path d="M40.2735 4.33513C40.2062 1.8516 38.1025 -0.0879264 35.5749 0.00307577C33.0472 0.0940779 31.0528 2.18115 31.1201 4.66468C31.1875 7.14821 33.2911 9.08774 35.8188 8.99673C38.3464 8.90573 40.3409 6.81866 40.2735 4.33513Z" fill="url(#paint2_linear_57_42298)"/>
<path d="M48.1023 36.7648V18.4534H48.8878V36.7648H48.1023ZM48.495 15.1154C48.2823 15.1154 48.0982 15.0399 47.9428 14.8889C47.7873 14.7379 47.7096 14.5591 47.7096 14.3524C47.7096 14.1458 47.7873 13.967 47.9428 13.8159C48.0982 13.6649 48.2823 13.5894 48.495 13.5894C48.7078 13.5894 48.8919 13.6649 49.0473 13.8159C49.2028 13.967 49.2805 14.1458 49.2805 14.3524C49.2805 14.5591 49.2028 14.7379 49.0473 14.8889C48.8919 15.0399 48.7078 15.1154 48.495 15.1154Z" fill="url(#paint3_linear_57_42298)"/>
<path d="M74.8596 19.9794H74.0251C73.8696 19.1687 73.5669 18.3421 73.1169 17.4997C72.6669 16.6572 72.0696 15.8784 71.3251 15.1631C70.5806 14.4478 69.701 13.8716 68.6865 13.4345C67.672 12.9973 66.5224 12.7788 65.2379 12.7788C63.5197 12.7788 61.9284 13.2358 60.4639 14.1497C59.0075 15.0558 57.8334 16.387 56.9416 18.1435C56.058 19.8919 55.6162 22.0299 55.6162 24.5572C55.6162 27.1164 56.058 29.2702 56.9416 31.0187C57.8334 32.7672 59.0075 34.0905 60.4639 34.9885C61.9284 35.8866 63.5197 36.3357 65.2379 36.3357C66.5224 36.3357 67.672 36.1211 68.6865 35.6919C69.701 35.2548 70.5806 34.6826 71.3251 33.9752C72.0696 33.2599 72.6669 32.481 73.1169 31.6386C73.5669 30.7882 73.8696 29.9537 74.0251 29.1351H74.8596C74.7041 29.9934 74.3932 30.8875 73.9269 31.8174C73.4605 32.7394 72.8305 33.6017 72.0369 34.4044C71.2433 35.2071 70.2819 35.8588 69.1529 36.3595C68.0238 36.8523 66.7188 37.0986 65.2379 37.0986C63.1761 37.0986 61.3639 36.5741 59.8012 35.525C58.2384 34.4759 57.0194 33.0096 56.1439 31.126C55.2685 29.2424 54.8308 27.0528 54.8308 24.5572C54.8308 22.0617 55.2685 19.8721 56.1439 17.9885C57.0194 16.1049 58.2384 14.6385 59.8012 13.5894C61.3639 12.5403 63.1761 12.0158 65.2379 12.0158C66.7188 12.0158 68.0238 12.2622 69.1529 12.7549C70.2819 13.2477 71.2433 13.8954 72.0369 14.6981C72.8305 15.4929 73.4605 16.3552 73.9269 17.2851C74.3932 18.207 74.7041 19.1051 74.8596 19.9794Z" fill="url(#paint4_linear_57_42298)"/>
<path d="M87.7581 37.1463C86.0563 37.1463 84.5754 36.737 83.3154 35.9184C82.0554 35.0998 81.0818 33.9792 80.3945 32.5566C79.7073 31.1339 79.3636 29.5126 79.3636 27.6926C79.3636 25.8646 79.7073 24.2353 80.3945 22.8048C81.09 21.3742 82.0431 20.2456 83.254 19.4191C84.4649 18.5925 85.8476 18.1792 87.4022 18.1792C88.4576 18.1792 89.4558 18.3859 90.3967 18.7991C91.3458 19.2045 92.1803 19.7926 92.9003 20.5635C93.6285 21.3344 94.1971 22.2643 94.6062 23.3532C95.0234 24.442 95.2321 25.6659 95.2321 27.025V27.931H80.3086V26.6077H93.7348C93.7348 25.2805 93.4566 24.0843 92.9003 23.0193C92.3439 21.9544 91.5871 21.1079 90.6299 20.4801C89.6726 19.8522 88.5967 19.5383 87.4022 19.5383C86.1504 19.5383 85.0336 19.88 84.0518 20.5635C83.0781 21.2391 82.305 22.1531 81.7322 23.3055C81.1677 24.4579 80.8732 25.7454 80.8486 27.168V27.7641C80.8486 29.2901 81.1227 30.661 81.6709 31.877C82.2272 33.0851 83.0209 34.0428 84.0518 34.7501C85.0827 35.4495 86.3181 35.7992 87.7581 35.7992C88.789 35.7992 89.6685 35.6323 90.3967 35.2985C91.133 34.9567 91.7344 34.5435 92.2008 34.0587C92.6671 33.5739 93.0189 33.1049 93.2562 32.6519L94.6184 33.1884C94.3321 33.8004 93.8862 34.4123 93.2807 35.0243C92.6835 35.6283 91.9226 36.133 90.998 36.5383C90.0817 36.9437 89.0017 37.1463 87.7581 37.1463Z" fill="url(#paint5_linear_57_42298)"/>
<path d="M102.35 12.3496V36.7648H100.166V12.3496H102.35Z" fill="url(#paint6_linear_57_42298)"/>
<path d="M115.801 37.1463C113.985 37.1463 112.418 36.7569 111.101 35.978C109.791 35.1912 108.781 34.0944 108.069 32.6877C107.366 31.273 107.014 29.6278 107.014 27.7522C107.014 25.8765 107.366 24.2234 108.069 22.7928C108.781 21.3543 109.771 20.2337 111.039 19.431C112.316 18.6203 113.805 18.215 115.506 18.215C116.488 18.215 117.458 18.3739 118.415 18.6918C119.372 19.0097 120.244 19.5263 121.029 20.2416C121.814 20.949 122.44 21.8868 122.907 23.0551C123.373 24.2234 123.606 25.6619 123.606 27.3707V28.5628H109.076V26.1309H120.661C120.661 25.0977 120.448 24.1757 120.023 23.3651C119.605 22.5544 119.008 21.9146 118.231 21.4457C117.462 20.9768 116.554 20.7423 115.506 20.7423C114.353 20.7423 113.355 21.0205 112.512 21.5768C111.677 22.1252 111.035 22.8405 110.585 23.7227C110.135 24.6049 109.91 25.5507 109.91 26.56V28.1814C109.91 29.5643 110.156 30.7365 110.646 31.6982C111.146 32.6519 111.837 33.3791 112.721 33.8798C113.604 34.3726 114.631 34.619 115.801 34.619C116.562 34.619 117.249 34.5157 117.863 34.309C118.485 34.0944 119.02 33.7765 119.47 33.3553C119.92 32.9261 120.268 32.3936 120.514 31.7578L123.312 32.5208C123.017 33.4427 122.522 34.2534 121.827 34.9528C121.131 35.6442 120.272 36.1847 119.25 36.5741C118.227 36.9556 117.077 37.1463 115.801 37.1463Z" fill="url(#paint7_linear_57_42298)"/>
<path d="M128.012 36.7648V18.4534H130.81V21.2192H131.007C131.35 20.3132 131.972 19.578 132.872 19.0137C133.772 18.4494 134.787 18.1673 135.916 18.1673C136.128 18.1673 136.394 18.1713 136.713 18.1792C137.032 18.1872 137.274 18.1991 137.437 18.215V21.0761C137.339 21.0523 137.114 21.0165 136.762 20.9688C136.419 20.9132 136.055 20.8854 135.67 20.8854C134.754 20.8854 133.936 21.0722 133.216 21.4457C132.504 21.8113 131.939 22.32 131.522 22.9717C131.113 23.6154 130.908 24.3506 130.908 25.1771V36.7648H128.012Z" fill="url(#paint8_linear_57_42298)"/>
<path d="M146.172 37.1702C144.978 37.1702 143.898 36.9556 142.933 36.5264C141.967 36.0893 141.202 35.4575 140.638 34.6309C140.081 33.8043 139.803 32.791 139.803 31.5909C139.803 30.5577 140.008 29.7073 140.417 29.0397C140.826 28.3721 141.378 27.8436 142.073 27.4542C142.769 27.0647 143.546 26.7707 144.405 26.572C145.264 26.3733 146.14 26.2223 147.032 26.1189C148.161 25.9918 149.077 25.8885 149.781 25.809C150.484 25.7216 150.996 25.5825 151.315 25.3917C151.634 25.201 151.793 24.891 151.793 24.4619V24.3784C151.793 23.3373 151.491 22.5306 150.885 21.9583C150.288 21.3861 149.396 21.1 148.21 21.1C146.974 21.1 146.001 21.3662 145.289 21.8987C144.585 22.4233 144.098 23.0074 143.828 23.6512L140.38 22.8882C140.789 21.7755 141.386 20.8775 142.172 20.194C142.965 19.5025 143.877 19.0018 144.908 18.6918C145.939 18.3739 147.023 18.215 148.161 18.215C148.913 18.215 149.711 18.3024 150.554 18.4773C151.405 18.6442 152.198 18.9541 152.935 19.4071C153.679 19.8601 154.289 20.5079 154.763 21.3503C155.238 22.1848 155.475 23.2697 155.475 24.6049V36.7648H151.891V34.2613H151.744C151.507 34.7223 151.151 35.1753 150.677 35.6204C150.202 36.0655 149.592 36.435 148.848 36.7291C148.103 37.0231 147.212 37.1702 146.172 37.1702ZM146.97 34.309C147.985 34.309 148.852 34.1143 149.572 33.7249C150.3 33.3354 150.852 32.8268 151.229 32.1989C151.613 31.5631 151.806 30.8836 151.806 30.1603V27.7999C151.675 27.927 151.421 28.0463 151.045 28.1575C150.677 28.2608 150.255 28.3522 149.781 28.4317C149.306 28.5032 148.844 28.5708 148.394 28.6344C147.944 28.69 147.567 28.7377 147.265 28.7774C146.553 28.8649 145.902 29.0119 145.313 29.2185C144.732 29.4252 144.266 29.7232 143.914 30.1126C143.571 30.4941 143.399 31.0028 143.399 31.6386C143.399 32.5208 143.734 33.1884 144.405 33.6414C145.076 34.0865 145.931 34.309 146.97 34.309Z" fill="url(#paint9_linear_57_42298)"/>
<path d="M160.179 36.7648V18.4534H164.621V36.7648H160.179ZM162.412 15.8545C161.709 15.8545 161.103 15.628 160.596 15.175C160.089 14.714 159.835 14.1617 159.835 13.5179C159.835 12.8662 160.089 12.3138 160.596 11.8608C161.103 11.3999 161.709 11.1694 162.412 11.1694C163.124 11.1694 163.729 11.3999 164.229 11.8608C164.736 12.3138 164.989 12.8662 164.989 13.5179C164.989 14.1617 164.736 14.714 164.229 15.175C163.729 15.628 163.124 15.8545 162.412 15.8545Z" fill="url(#paint10_linear_57_42298)"/>
<path d="M179.02 18.4534V22.2683H167.668V18.4534H179.02ZM170.245 14.0663H175.473V31.1379C175.473 31.6068 175.547 31.9724 175.694 32.2347C175.841 32.489 176.046 32.6678 176.308 32.7711C176.578 32.8745 176.889 32.9261 177.24 32.9261C177.486 32.9261 177.731 32.9063 177.977 32.8665C178.222 32.8188 178.41 32.7831 178.541 32.7592L179.364 36.5383C179.102 36.6178 178.734 36.7092 178.259 36.8125C177.785 36.9238 177.208 36.9914 176.529 37.0152C175.269 37.0629 174.164 36.9 173.215 36.5264C172.274 36.1529 171.542 35.5727 171.018 34.7859C170.495 33.9991 170.237 33.0056 170.245 31.8055V14.0663Z" fill="url(#paint11_linear_57_42298)"/>
<path d="M191.053 37.1106C189.081 37.1106 187.38 36.7331 185.948 35.978C184.524 35.215 183.428 34.1302 182.659 32.7235C181.898 31.3088 181.517 29.6278 181.517 27.6807C181.517 25.7891 181.902 24.136 182.671 22.7213C183.44 21.2987 184.524 20.194 185.923 19.4071C187.322 18.6124 188.971 18.215 190.869 18.215C192.211 18.215 193.438 18.4176 194.551 18.823C195.664 19.2283 196.625 19.8284 197.435 20.6231C198.245 21.4179 198.875 22.3994 199.325 23.5677C199.775 24.7281 200 26.0593 200 27.5614V29.0159H183.616V25.6302H194.416C194.408 25.0102 194.256 24.4579 193.962 23.9731C193.667 23.4883 193.262 23.1107 192.747 22.8405C192.24 22.5624 191.655 22.4233 190.992 22.4233C190.321 22.4233 189.72 22.5703 189.188 22.8644C188.656 23.1505 188.235 23.5439 187.924 24.0446C187.613 24.5374 187.449 25.0977 187.433 25.7255V29.1708C187.433 29.9179 187.584 30.5736 187.887 31.1379C188.19 31.6942 188.619 32.1274 189.176 32.4373C189.732 32.7473 190.395 32.9023 191.164 32.9023C191.696 32.9023 192.178 32.8307 192.612 32.6877C193.046 32.5446 193.418 32.334 193.729 32.0559C194.04 31.7777 194.273 31.4359 194.428 31.0306L199.939 31.1856C199.71 32.3857 199.206 33.4308 198.429 34.3209C197.66 35.2031 196.65 35.8906 195.398 36.3834C194.146 36.8682 192.698 37.1106 191.053 37.1106Z" fill="url(#paint12_linear_57_42298)"/>
<defs>
<linearGradient id="paint0_linear_57_42298" x1="-8.00645" y1="51.0992" x2="50.2808" y2="27.1508" gradientUnits="userSpaceOnUse">
<stop offset="0.147233" stop-color="#FBA82B"/>
<stop offset="0.40215" stop-color="#BE40C0"/>
<stop offset="0.666667" stop-color="#505ADD"/>
<stop offset="1" stop-color="#38D1BC"/>
</linearGradient>
<linearGradient id="paint1_linear_57_42298" x1="-8.00645" y1="51.0992" x2="50.2808" y2="27.1508" gradientUnits="userSpaceOnUse">
<stop offset="0.147233" stop-color="#FBA82B"/>
<stop offset="0.40215" stop-color="#BE40C0"/>
<stop offset="0.666667" stop-color="#505ADD"/>
<stop offset="1" stop-color="#38D1BC"/>
</linearGradient>
<linearGradient id="paint2_linear_57_42298" x1="-8.00645" y1="51.0992" x2="50.2808" y2="27.1508" gradientUnits="userSpaceOnUse">
<stop offset="0.147233" stop-color="#FBA82B"/>
<stop offset="0.40215" stop-color="#BE40C0"/>
<stop offset="0.666667" stop-color="#505ADD"/>
<stop offset="1" stop-color="#38D1BC"/>
</linearGradient>
<linearGradient id="paint3_linear_57_42298" x1="47.7096" y1="37.0979" x2="121.12" y2="-53.101" gradientUnits="userSpaceOnUse">
<stop stop-color="#38D1BC"/>
<stop offset="0.801215" stop-color="#119CD3"/>
</linearGradient>
<linearGradient id="paint4_linear_57_42298" x1="47.7096" y1="37.0979" x2="121.12" y2="-53.101" gradientUnits="userSpaceOnUse">
<stop stop-color="#38D1BC"/>
<stop offset="0.801215" stop-color="#119CD3"/>
</linearGradient>
<linearGradient id="paint5_linear_57_42298" x1="47.7096" y1="37.0979" x2="121.12" y2="-53.101" gradientUnits="userSpaceOnUse">
<stop stop-color="#38D1BC"/>
<stop offset="0.801215" stop-color="#119CD3"/>
</linearGradient>
<linearGradient id="paint6_linear_57_42298" x1="47.7096" y1="37.0979" x2="121.12" y2="-53.101" gradientUnits="userSpaceOnUse">
<stop stop-color="#38D1BC"/>
<stop offset="0.801215" stop-color="#119CD3"/>
</linearGradient>
<linearGradient id="paint7_linear_57_42298" x1="47.7096" y1="37.0979" x2="121.12" y2="-53.101" gradientUnits="userSpaceOnUse">
<stop stop-color="#38D1BC"/>
<stop offset="0.801215" stop-color="#119CD3"/>
</linearGradient>
<linearGradient id="paint8_linear_57_42298" x1="47.7096" y1="37.0979" x2="121.12" y2="-53.101" gradientUnits="userSpaceOnUse">
<stop stop-color="#38D1BC"/>
<stop offset="0.801215" stop-color="#119CD3"/>
</linearGradient>
<linearGradient id="paint9_linear_57_42298" x1="47.7096" y1="37.0979" x2="121.12" y2="-53.101" gradientUnits="userSpaceOnUse">
<stop stop-color="#38D1BC"/>
<stop offset="0.801215" stop-color="#119CD3"/>
</linearGradient>
<linearGradient id="paint10_linear_57_42298" x1="47.7096" y1="37.0979" x2="121.12" y2="-53.101" gradientUnits="userSpaceOnUse">
<stop stop-color="#38D1BC"/>
<stop offset="0.801215" stop-color="#119CD3"/>
</linearGradient>
<linearGradient id="paint11_linear_57_42298" x1="47.7096" y1="37.0979" x2="121.12" y2="-53.101" gradientUnits="userSpaceOnUse">
<stop stop-color="#38D1BC"/>
<stop offset="0.801215" stop-color="#119CD3"/>
</linearGradient>
<linearGradient id="paint12_linear_57_42298" x1="47.7096" y1="37.0979" x2="121.12" y2="-53.101" gradientUnits="userSpaceOnUse">
<stop stop-color="#38D1BC"/>
<stop offset="0.801215" stop-color="#119CD3"/>
</linearGradient>
</defs>
</svg>
