<svg width="250" height="52" viewBox="0 0 250 52" fill="none" xmlns="http://www.w3.org/2000/svg">
<path d="M26.3632 14.6244C26.7669 13.941 27.021 13.1833 27.109 12.4004C27.1971 11.6175 27.1172 10.8268 26.8745 10.0794C26.6318 9.33201 26.2317 8.64456 25.7001 8.06149C25.1685 7.47841 24.5172 7.01271 23.7883 6.69447C23.0594 6.37623 22.2692 6.21254 21.4686 6.21399C20.6681 6.21545 19.8751 6.382 19.1409 6.70289C18.4067 7.02378 17.7477 7.49187 17.2064 8.07688C16.6651 8.6619 16.2536 9.35083 15.9985 10.0991C15.8043 10.4278 0.904426 42.9508 0.780511 43.3113C0.376866 43.9948 0.122797 44.7524 0.0347277 45.5353C-0.0533415 46.3182 0.0265492 47.1089 0.269236 47.8563C0.511923 48.6037 0.912005 49.2912 1.44362 49.8742C1.97523 50.4573 2.62653 50.923 3.35543 51.2413C4.08433 51.5595 4.87459 51.7232 5.67513 51.7217C6.47567 51.7203 7.26867 51.5537 8.00286 51.2328C8.73705 50.9119 9.39609 50.4439 9.93738 49.8588C10.4787 49.2738 10.8901 48.5849 11.1452 47.8366C11.3409 47.5136 26.2379 14.989 26.3632 14.6244Z" fill="url(#paint0_linear_57_42298)"/>
<path d="M42.4967 23.8391C42.9008 23.1558 43.1554 22.3981 43.2439 21.6151C43.3324 20.8321 43.2528 20.0412 43.0105 19.2936C42.7681 18.5459 42.3682 17.8582 41.8367 17.2748C41.3052 16.6914 40.654 16.2254 39.9251 15.9069C39.1961 15.5884 38.4058 15.4245 37.6051 15.4258C36.8044 15.427 36.0112 15.5935 35.2768 15.9143C34.5425 16.2351 33.8833 16.7032 33.3418 17.2883C32.8004 17.8734 32.3888 18.5625 32.1337 19.3109C31.9366 19.6379 24.1117 36.7249 23.9863 37.0846C23.5822 37.7679 23.3277 38.5256 23.2392 39.3086C23.1507 40.0916 23.2302 40.8825 23.4726 41.6301C23.715 42.3777 24.1148 43.0655 24.6463 43.6489C25.1778 44.2322 25.829 44.6983 26.558 45.0168C27.2869 45.3353 28.0773 45.4992 28.8779 45.4979C29.6786 45.4966 30.4718 45.3302 31.2062 45.0094C31.9405 44.6885 32.5998 44.2204 33.1412 43.6354C33.6826 43.0503 34.0942 42.3612 34.3493 41.6128C34.5441 41.2864 42.371 24.2025 42.4967 23.8391Z" fill="url(#paint1_linear_57_42298)"/>
<path d="M50.3419 5.41892C50.2577 2.3145 47.6282 -0.109908 44.4686 0.00384471C41.309 0.117597 38.816 2.72644 38.9002 5.83085C38.9843 8.93526 41.6139 11.3597 44.7735 11.2459C47.9331 11.1322 50.4261 8.52333 50.3419 5.41892Z" fill="url(#paint2_linear_57_42298)"/>
<path d="M60.1279 45.9561V23.0668H61.1097V45.9561H60.1279ZM60.6188 18.8943C60.3529 18.8943 60.1228 18.7999 59.9284 18.6111C59.7341 18.4224 59.637 18.1988 59.637 17.9405C59.637 17.6822 59.7341 17.4587 59.9284 17.2699C60.1228 17.0812 60.3529 16.9868 60.6188 16.9868C60.8847 16.9868 61.1148 17.0812 61.3091 17.2699C61.5034 17.4587 61.6006 17.6822 61.6006 17.9405C61.6006 18.1988 61.5034 18.4224 61.3091 18.6111C61.1148 18.7999 60.8847 18.8943 60.6188 18.8943Z" fill="url(#paint3_linear_57_42298)"/>
<path d="M93.5745 24.9742H92.5313C92.337 23.9609 91.9586 22.9277 91.3961 21.8746C90.8336 20.8216 90.087 19.848 89.1563 18.9539C88.2257 18.0597 87.1263 17.3395 85.8581 16.7931C84.5899 16.2467 83.153 15.9735 81.5473 15.9735C79.3996 15.9735 77.4105 16.5447 75.5798 17.6872C73.7594 18.8197 72.2918 20.4838 71.177 22.6793C70.0725 24.8649 69.5202 27.5373 69.5202 30.6965C69.5202 33.8955 70.0725 36.5878 71.177 38.7734C72.2918 40.959 73.7594 42.6131 75.5798 43.7357C77.4105 44.8583 79.3996 45.4196 81.5473 45.4196C83.153 45.4196 84.5899 45.1514 85.8581 44.6149C87.1263 44.0685 88.2257 43.3532 89.1563 42.469C90.087 41.5749 90.8336 40.6013 91.3961 39.5483C91.9586 38.4853 92.337 37.4421 92.5313 36.4189H93.5745C93.3802 37.4918 92.9915 38.6094 92.4086 39.7718C91.8256 40.9242 91.0381 42.0021 90.0461 43.0055C89.0541 44.0089 87.8524 44.8235 86.441 45.4494C85.0297 46.0654 83.3985 46.3733 81.5473 46.3733C78.9701 46.3733 76.7048 45.7176 74.7514 44.4063C72.798 43.0949 71.2742 41.262 70.1799 38.9075C69.0856 36.553 68.5384 33.816 68.5384 30.6965C68.5384 27.5771 69.0856 24.8401 70.1799 22.4856C71.2742 20.1311 72.798 18.2982 74.7514 16.9868C76.7048 15.6754 78.9701 15.0198 81.5473 15.0198C83.3985 15.0198 85.0297 15.3277 86.441 15.9437C87.8524 16.5596 89.0541 17.3693 90.0461 18.3727C91.0381 19.3661 91.8256 20.444 92.4086 21.6064C92.9915 22.7588 93.3802 23.8814 93.5745 24.9742Z" fill="url(#paint4_linear_57_42298)"/>
<path d="M109.698 46.4329C107.57 46.4329 105.719 45.9213 104.144 44.898C102.569 43.8748 101.352 42.474 100.493 40.6957C99.6341 38.9174 99.2045 36.8908 99.2045 34.6157C99.2045 32.3308 99.6341 30.2942 100.493 28.506C101.362 26.7177 102.554 25.307 104.068 24.2738C105.581 23.2406 107.31 22.724 109.253 22.724C110.572 22.724 111.82 22.9823 112.996 23.4989C114.182 24.0056 115.225 24.7408 116.125 25.7044C117.036 26.6681 117.746 27.8304 118.258 29.1915C118.779 30.5525 119.04 32.0824 119.04 33.7812V34.9138H100.386V33.2597H117.168C117.168 31.6006 116.821 30.1054 116.125 28.7742C115.43 27.443 114.484 26.3849 113.287 25.6001C112.091 24.8153 110.746 24.4229 109.253 24.4229C107.688 24.4229 106.292 24.85 105.065 25.7044C103.848 26.5489 102.881 27.6913 102.165 29.1318C101.46 30.5724 101.091 32.1818 101.061 33.9601V34.7051C101.061 36.6126 101.403 38.3263 102.089 39.8463C102.784 41.3564 103.776 42.5535 105.065 43.4377C106.353 44.3119 107.898 44.749 109.698 44.749C110.986 44.749 112.086 44.5404 112.996 44.1231C113.916 43.696 114.668 43.1794 115.251 42.5733C115.834 41.9673 116.274 41.3812 116.57 40.8149L118.273 41.4855C117.915 42.2505 117.358 43.0154 116.601 43.7804C115.854 44.5354 114.903 45.1663 113.748 45.6729C112.602 46.1796 111.252 46.4329 109.698 46.4329Z" fill="url(#paint5_linear_57_42298)"/>
<path d="M127.938 15.437V45.9561H125.207V15.437H127.938Z" fill="url(#paint6_linear_57_42298)"/>
<path d="M144.751 46.4329C142.481 46.4329 140.522 45.9461 138.876 44.9725C137.239 43.989 135.976 42.618 135.086 40.8596C134.207 39.0913 133.767 37.0348 133.767 34.6903C133.767 32.3457 134.207 30.2793 135.086 28.4911C135.976 26.6929 137.214 25.2921 138.799 24.2887C140.394 23.2754 142.256 22.7687 144.383 22.7687C145.61 22.7687 146.822 22.9674 148.019 23.3648C149.215 23.7622 150.304 24.408 151.286 25.3021C152.268 26.1862 153.05 27.3585 153.633 28.8189C154.216 30.2793 154.508 32.0775 154.508 34.2134V35.7036H136.344V32.6636H150.826C150.826 31.3721 150.56 30.2197 150.028 29.2064C149.507 28.193 148.76 27.3933 147.789 26.8072C146.827 26.221 145.692 25.9279 144.383 25.9279C142.941 25.9279 141.693 26.2757 140.64 26.9711C139.597 27.6566 138.794 28.5507 138.231 29.6534C137.669 30.7562 137.388 31.9384 137.388 33.2001V35.2267C137.388 36.9553 137.694 38.4207 138.308 39.6228C138.932 40.8149 139.796 41.7239 140.901 42.3498C142.005 42.9658 143.289 43.2737 144.751 43.2737C145.702 43.2737 146.561 43.1446 147.328 42.8863C148.106 42.618 148.775 42.2207 149.338 41.6941C149.9 41.1577 150.335 40.492 150.642 39.6973L154.14 40.651C153.771 41.8034 153.153 42.8167 152.283 43.691C151.414 44.5553 150.34 45.2308 149.062 45.7176C147.783 46.1945 146.347 46.4329 144.751 46.4329Z" fill="url(#paint7_linear_57_42298)"/>
<path d="M160.015 45.9561V23.0668H163.513V26.524H163.758C164.188 25.3915 164.965 24.4725 166.09 23.7672C167.215 23.0618 168.483 22.7091 169.895 22.7091C170.16 22.7091 170.493 22.7141 170.892 22.724C171.291 22.734 171.592 22.7489 171.797 22.7687V26.3452C171.674 26.3154 171.393 26.2707 170.953 26.2111C170.524 26.1415 170.068 26.1068 169.588 26.1068C168.442 26.1068 167.42 26.3402 166.52 26.8072C165.63 27.2641 164.924 27.9 164.403 28.7146C163.891 29.5193 163.636 30.4382 163.636 31.4714V45.9561H160.015Z" fill="url(#paint8_linear_57_42298)"/>
<path d="M182.716 46.4627C181.222 46.4627 179.872 46.1945 178.666 45.658C177.459 45.1116 176.503 44.3218 175.797 43.2886C175.101 42.2554 174.754 40.9888 174.754 39.4887C174.754 38.1972 175.009 37.1342 175.521 36.2997C176.032 35.4651 176.722 34.8045 177.592 34.3177C178.461 33.8309 179.433 33.4633 180.507 33.215C181.58 32.9666 182.675 32.7778 183.789 32.6487C185.201 32.4897 186.346 32.3606 187.226 32.2612C188.105 32.152 188.744 31.9781 189.143 31.7397C189.542 31.5012 189.742 31.1138 189.742 30.5773V30.473C189.742 29.1716 189.363 28.1632 188.606 27.4479C187.86 26.7326 186.745 26.375 185.262 26.375C183.718 26.375 182.501 26.7078 181.611 27.3734C180.731 28.0291 180.123 28.7593 179.785 29.564L175.475 28.6103C175.986 27.2194 176.733 26.0968 177.714 25.2425C178.707 24.3781 179.847 23.7523 181.135 23.3648C182.424 22.9674 183.779 22.7687 185.201 22.7687C186.142 22.7687 187.139 22.878 188.192 23.0966C189.256 23.3052 190.248 23.6927 191.168 24.2589C192.099 24.8252 192.861 25.6349 193.454 26.6879C194.047 27.7311 194.344 29.0871 194.344 30.7562V45.9561H189.864V42.8267H189.68C189.384 43.4029 188.939 43.9692 188.346 44.5255C187.752 45.0818 186.991 45.5438 186.06 45.9114C185.129 46.2789 184.014 46.4627 182.716 46.4627ZM183.713 42.8863C184.981 42.8863 186.065 42.6429 186.965 42.1561C187.875 41.6693 188.565 41.0335 189.036 40.2486C189.517 39.4539 189.757 38.6045 189.757 37.7004V34.7499C189.593 34.9088 189.276 35.0578 188.806 35.1969C188.346 35.3261 187.819 35.4403 187.226 35.5397C186.633 35.6291 186.055 35.7135 185.492 35.793C184.93 35.8625 184.459 35.9221 184.081 35.9718C183.191 36.0811 182.378 36.2649 181.642 36.5232C180.916 36.7815 180.333 37.154 179.893 37.6408C179.463 38.1177 179.249 38.7535 179.249 39.5483C179.249 40.651 179.668 41.4855 180.507 42.0518C181.345 42.6081 182.414 42.8863 183.713 42.8863Z" fill="url(#paint9_linear_57_42298)"/>
<path d="M200.223 45.9561V23.0668H205.777V45.9561H200.223ZM203.015 19.8182C202.136 19.8182 201.379 19.535 200.745 18.9688C200.111 18.3926 199.794 17.7021 199.794 16.8974C199.794 16.0828 200.111 15.3923 200.745 14.826C201.379 14.2498 202.136 13.9617 203.015 13.9617C203.905 13.9617 204.662 14.2498 205.286 14.826C205.92 15.3923 206.237 16.0828 206.237 16.8974C206.237 17.7021 205.92 18.3926 205.286 18.9688C204.662 19.535 203.905 19.8182 203.015 19.8182Z" fill="url(#paint10_linear_57_42298)"/>
<path d="M223.775 23.0668V27.8354H209.585V23.0668H223.775ZM212.806 17.5829H219.342V38.9224C219.342 39.5085 219.434 39.9655 219.618 40.2934C219.802 40.6113 220.057 40.8348 220.385 40.9639C220.722 41.0931 221.111 41.1577 221.551 41.1577C221.857 41.1577 222.164 41.1328 222.471 41.0832C222.778 41.0235 223.013 40.9788 223.177 40.949L224.205 45.6729C223.877 45.7723 223.417 45.8865 222.824 46.0157C222.231 46.1548 221.51 46.2392 220.661 46.269C219.086 46.3286 217.705 46.125 216.519 45.658C215.343 45.1911 214.427 44.4659 213.773 43.4824C213.118 42.4988 212.796 41.257 212.806 39.7569V17.5829Z" fill="url(#paint11_linear_57_42298)"/>
<path d="M238.817 46.3882C236.352 46.3882 234.225 45.9163 232.435 44.9725C230.655 44.0188 229.285 42.6628 228.324 40.9043C227.372 39.136 226.897 37.0348 226.897 34.6008C226.897 32.2364 227.378 30.17 228.339 28.4017C229.3 26.6234 230.655 25.2425 232.404 24.2589C234.153 23.2655 236.214 22.7687 238.586 22.7687C240.264 22.7687 241.798 23.0221 243.189 23.5287C244.58 24.0354 245.781 24.7855 246.794 25.7789C247.806 26.7724 248.594 27.9993 249.156 29.4597C249.719 30.9101 250 32.5742 250 34.4518V36.2698H229.52V32.0377H243.02C243.01 31.2628 242.821 30.5724 242.452 29.9664C242.084 29.3603 241.578 28.8884 240.934 28.5507C240.3 28.203 239.568 28.0291 238.74 28.0291C237.901 28.0291 237.15 28.2129 236.485 28.5805C235.82 28.9381 235.293 29.4299 234.905 30.0558C234.516 30.6717 234.312 31.3721 234.291 32.1569V36.4636C234.291 37.3974 234.48 38.217 234.859 38.9224C235.237 39.6178 235.774 40.1592 236.469 40.5467C237.165 40.9341 237.993 41.1279 238.955 41.1279C239.619 41.1279 240.223 41.0385 240.765 40.8596C241.307 40.6808 241.772 40.4175 242.161 40.0698C242.549 39.7221 242.841 39.2949 243.035 38.7883L249.923 38.982C249.637 40.4821 249.008 41.7885 248.036 42.9012C247.075 44.0039 245.812 44.8633 244.247 45.4792C242.682 46.0852 240.872 46.3882 238.817 46.3882Z" fill="url(#paint12_linear_57_42298)"/>
<defs>
<linearGradient id="paint0_linear_57_42298" x1="-10.0081" y1="63.874" x2="62.851" y2="33.9385" gradientUnits="userSpaceOnUse">
<stop offset="0.147233" stop-color="#FBA82B"/>
<stop offset="0.40215" stop-color="#BE40C0"/>
<stop offset="0.666667" stop-color="#505ADD"/>
<stop offset="1" stop-color="#38D1BC"/>
</linearGradient>
<linearGradient id="paint1_linear_57_42298" x1="-10.0081" y1="63.874" x2="62.851" y2="33.9385" gradientUnits="userSpaceOnUse">
<stop offset="0.147233" stop-color="#FBA82B"/>
<stop offset="0.40215" stop-color="#BE40C0"/>
<stop offset="0.666667" stop-color="#505ADD"/>
<stop offset="1" stop-color="#38D1BC"/>
</linearGradient>
<linearGradient id="paint2_linear_57_42298" x1="-10.0081" y1="63.874" x2="62.851" y2="33.9385" gradientUnits="userSpaceOnUse">
<stop offset="0.147233" stop-color="#FBA82B"/>
<stop offset="0.40215" stop-color="#BE40C0"/>
<stop offset="0.666667" stop-color="#505ADD"/>
<stop offset="1" stop-color="#38D1BC"/>
</linearGradient>
<linearGradient id="paint3_linear_57_42298" x1="59.637" y1="46.3725" x2="151.4" y2="-66.3763" gradientUnits="userSpaceOnUse">
<stop stop-color="#38D1BC"/>
<stop offset="0.801215" stop-color="#119CD3"/>
</linearGradient>
<linearGradient id="paint4_linear_57_42298" x1="59.637" y1="46.3725" x2="151.4" y2="-66.3763" gradientUnits="userSpaceOnUse">
<stop stop-color="#38D1BC"/>
<stop offset="0.801215" stop-color="#119CD3"/>
</linearGradient>
<linearGradient id="paint5_linear_57_42298" x1="59.637" y1="46.3725" x2="151.4" y2="-66.3763" gradientUnits="userSpaceOnUse">
<stop stop-color="#38D1BC"/>
<stop offset="0.801215" stop-color="#119CD3"/>
</linearGradient>
<linearGradient id="paint6_linear_57_42298" x1="59.637" y1="46.3725" x2="151.4" y2="-66.3763" gradientUnits="userSpaceOnUse">
<stop stop-color="#38D1BC"/>
<stop offset="0.801215" stop-color="#119CD3"/>
</linearGradient>
<linearGradient id="paint7_linear_57_42298" x1="59.637" y1="46.3725" x2="151.4" y2="-66.3763" gradientUnits="userSpaceOnUse">
<stop stop-color="#38D1BC"/>
<stop offset="0.801215" stop-color="#119CD3"/>
</linearGradient>
<linearGradient id="paint8_linear_57_42298" x1="59.637" y1="46.3725" x2="151.4" y2="-66.3763" gradientUnits="userSpaceOnUse">
<stop stop-color="#38D1BC"/>
<stop offset="0.801215" stop-color="#119CD3"/>
</linearGradient>
<linearGradient id="paint9_linear_57_42298" x1="59.637" y1="46.3725" x2="151.4" y2="-66.3763" gradientUnits="userSpaceOnUse">
<stop stop-color="#38D1BC"/>
<stop offset="0.801215" stop-color="#119CD3"/>
</linearGradient>
<linearGradient id="paint10_linear_57_42298" x1="59.637" y1="46.3725" x2="151.4" y2="-66.3763" gradientUnits="userSpaceOnUse">
<stop stop-color="#38D1BC"/>
<stop offset="0.801215" stop-color="#119CD3"/>
</linearGradient>
<linearGradient id="paint11_linear_57_42298" x1="59.637" y1="46.3725" x2="151.4" y2="-66.3763" gradientUnits="userSpaceOnUse">
<stop stop-color="#38D1BC"/>
<stop offset="0.801215" stop-color="#119CD3"/>
</linearGradient>
<linearGradient id="paint12_linear_57_42298" x1="59.637" y1="46.3725" x2="151.4" y2="-66.3763" gradientUnits="userSpaceOnUse">
<stop stop-color="#38D1BC"/>
<stop offset="0.801215" stop-color="#119CD3"/>
</linearGradient>
</defs>
</svg>
