<svg width="150" height="32" viewBox="0 0 150 32" fill="none" xmlns="http://www.w3.org/2000/svg">
<path d="M15.8179 8.77463C16.0601 8.36457 16.2126 7.90998 16.2654 7.44024C16.3183 6.97051 16.2703 6.49609 16.1247 6.04765C15.9791 5.59921 15.739 5.18673 15.4201 4.83689C15.1011 4.48705 14.7103 4.20762 14.273 4.01668C13.8357 3.82574 13.3615 3.72753 12.8812 3.7284C12.4008 3.72927 11.925 3.8292 11.4845 4.02173C11.044 4.21427 10.6486 4.49512 10.3238 4.84613C9.99905 5.19714 9.75216 5.61049 9.59912 6.05948C9.48261 6.2567 0.542656 25.7705 0.468307 25.9868C0.22612 26.3969 0.0736781 26.8515 0.0208366 27.3212C-0.0320049 27.7909 0.0159295 28.2653 0.161542 28.7138C0.307154 29.1622 0.547203 29.5747 0.866169 29.9245C1.18514 30.2744 1.57592 30.5538 2.01326 30.7447C2.4506 30.9357 2.92475 31.0339 3.40508 31.033C3.8854 31.0322 4.3612 30.9322 4.80172 30.7397C5.24223 30.5472 5.63765 30.2663 5.96242 29.9153C6.2872 29.5643 6.53408 29.1509 6.68713 28.702C6.80457 28.5082 15.7427 8.9934 15.8179 8.77463Z" fill="url(#paint0_linear_57_42298)"/>
<path d="M25.498 14.3034C25.7405 13.8935 25.8932 13.4389 25.9463 12.9691C25.9994 12.4993 25.9517 12.0247 25.8063 11.5761C25.6608 11.1276 25.4209 10.7149 25.102 10.3649C24.7831 10.0149 24.3924 9.73526 23.955 9.54415C23.5177 9.35304 23.0435 9.25469 22.563 9.25545C22.0826 9.25622 21.6067 9.35608 21.1661 9.54859C20.7255 9.74109 20.33 10.0219 20.0051 10.373C19.6802 10.724 19.4333 11.1375 19.2802 11.5865C19.1619 11.7828 14.467 22.0349 14.3918 22.2508C14.1493 22.6608 13.9966 23.1153 13.9435 23.5851C13.8904 24.0549 13.9381 24.5295 14.0835 24.9781C14.229 25.4266 14.4689 25.8393 14.7878 26.1893C15.1067 26.5393 15.4974 26.819 15.9348 27.0101C16.3721 27.2012 16.8464 27.2995 17.3268 27.2988C17.8072 27.298 18.2831 27.1981 18.7237 27.0056C19.1643 26.8131 19.5599 26.5323 19.8847 26.1812C20.2096 25.8302 20.4565 25.4167 20.6096 24.9677C20.7265 24.7718 25.4226 14.5215 25.498 14.3034Z" fill="url(#paint1_linear_57_42298)"/>
<path d="M30.2052 3.25135C30.1546 1.3887 28.5769 -0.0659448 26.6812 0.00230682C24.7854 0.0705585 23.2896 1.63586 23.3401 3.49851C23.3906 5.36116 24.9684 6.8158 26.8641 6.74755C28.7598 6.6793 30.2557 5.114 30.2052 3.25135Z" fill="url(#paint2_linear_57_42298)"/>
<path d="M36.0768 27.5736V13.84H36.6659V27.5736H36.0768ZM36.3713 11.3365C36.2118 11.3365 36.0737 11.2799 35.9571 11.1666C35.8405 11.0534 35.7822 10.9193 35.7822 10.7643C35.7822 10.6093 35.8405 10.4752 35.9571 10.3619C36.0737 10.2487 36.2118 10.1921 36.3713 10.1921C36.5309 10.1921 36.6689 10.2487 36.7855 10.3619C36.9021 10.4752 36.9604 10.6093 36.9604 10.7643C36.9604 10.9193 36.9021 11.0534 36.7855 11.1666C36.6689 11.2799 36.5309 11.3365 36.3713 11.3365Z" fill="url(#paint3_linear_57_42298)"/>
<path d="M56.1447 14.9845H55.5188C55.4022 14.3765 55.1752 13.7566 54.8377 13.1248C54.5002 12.4929 54.0523 11.9088 53.4939 11.3723C52.9355 10.8358 52.2758 10.4037 51.5149 10.0758C50.754 9.74799 49.8919 9.58407 48.9285 9.58407C47.6398 9.58407 46.4463 9.92681 45.3479 10.6123C44.2557 11.2918 43.3751 12.2902 42.7063 13.6076C42.0435 14.9189 41.7122 16.5224 41.7122 18.4179C41.7122 20.3373 42.0435 21.9526 42.7063 23.264C43.3751 24.5754 44.2557 25.5678 45.3479 26.2414C46.4463 26.915 47.6398 27.2517 48.9285 27.2517C49.8919 27.2517 50.754 27.0908 51.5149 26.7689C52.2758 26.4411 52.9355 26.0119 53.4939 25.4814C54.0523 24.9449 54.5002 24.3608 54.8377 23.7289C55.1752 23.0911 55.4022 22.4653 55.5188 21.8513H56.1447C56.0281 22.4951 55.795 23.1656 55.4452 23.8631C55.0954 24.5545 54.6229 25.2012 54.0277 25.8033C53.4325 26.4053 52.7115 26.8941 51.8647 27.2696C51.0179 27.6392 50.0391 27.824 48.9285 27.824C47.3821 27.824 46.0229 27.4306 44.8509 26.6437C43.6789 25.8569 42.7646 24.7572 42.108 23.3445C41.4514 21.9318 41.1231 20.2896 41.1231 18.4179C41.1231 16.5462 41.4514 14.904 42.108 13.4913C42.7646 12.0786 43.6789 10.9789 44.8509 10.1921C46.0229 9.40524 47.3821 9.01183 48.9285 9.01183C50.0391 9.01183 51.0179 9.19662 51.8647 9.56618C52.7115 9.93575 53.4325 10.4216 54.0277 11.0236C54.6229 11.6197 55.0954 12.2664 55.4452 12.9638C55.795 13.6553 56.0281 14.3288 56.1447 14.9845Z" fill="url(#paint4_linear_57_42298)"/>
<path d="M65.8186 27.8597C64.5422 27.8597 63.4316 27.5528 62.4866 26.9388C61.5416 26.3248 60.8114 25.4844 60.2959 24.4174C59.7805 23.3504 59.5228 22.1344 59.5228 20.7694C59.5228 19.3984 59.7805 18.1765 60.2959 17.1036C60.8175 16.0306 61.5324 15.1842 62.4406 14.5643C63.3487 13.9444 64.3858 13.6344 65.5517 13.6344C66.3432 13.6344 67.0919 13.7894 67.7975 14.0993C68.5094 14.4033 69.1353 14.8444 69.6752 15.4226C70.2214 16.0008 70.6478 16.6982 70.9547 17.5148C71.2676 18.3315 71.4241 19.2494 71.4241 20.2687V20.9482H60.2315V19.9558H70.3011C70.3011 18.9603 70.0925 18.0632 69.6752 17.2645C69.258 16.4658 68.6904 15.8309 67.9724 15.36C67.2545 14.8891 66.4476 14.6537 65.5517 14.6537C64.6128 14.6537 63.7752 14.91 63.0389 15.4226C62.3086 15.9293 61.7288 16.6148 61.2992 17.4791C60.8758 18.3434 60.6549 19.309 60.6365 20.376V20.8231C60.6365 21.9675 60.8421 22.9958 61.2532 23.9078C61.6705 24.8138 62.2657 25.5321 63.0389 26.0626C63.812 26.5871 64.7386 26.8494 65.8186 26.8494C66.5918 26.8494 67.2514 26.7242 67.7975 26.4739C68.3498 26.2175 68.8008 25.9076 69.1506 25.544C69.5004 25.1804 69.7642 24.8287 69.9422 24.4889L70.9639 24.8913C70.7491 25.3503 70.4147 25.8092 69.9606 26.2682C69.5126 26.7212 68.942 27.0997 68.2486 27.4037C67.5613 27.7077 66.7513 27.8597 65.8186 27.8597Z" fill="url(#paint5_linear_57_42298)"/>
<path d="M76.7627 9.26219V27.5736H75.1243V9.26219H76.7627Z" fill="url(#paint6_linear_57_42298)"/>
<path d="M86.8507 27.8597C85.4885 27.8597 84.3134 27.5677 83.3254 26.9835C82.3436 26.3934 81.5858 25.5708 81.0519 24.5158C80.5242 23.4547 80.2603 22.2209 80.2603 20.8141C80.2603 19.4074 80.5242 18.1676 81.0519 17.0946C81.5858 16.0157 82.3283 15.1753 83.2794 14.5732C84.2367 13.9652 85.3535 13.6612 86.6298 13.6612C87.3662 13.6612 88.0933 13.7804 88.8113 14.0189C89.5292 14.2573 90.1827 14.6447 90.7718 15.1812C91.3609 15.7117 91.8303 16.4151 92.1801 17.2913C92.5298 18.1676 92.7047 19.2464 92.7047 20.528V21.4221H81.8067V19.5981H90.4957C90.4957 18.8232 90.3361 18.1318 90.017 17.5238C89.7041 16.9158 89.2561 16.436 88.6732 16.0843C88.0964 15.7326 87.4153 15.5567 86.6298 15.5567C85.7646 15.5567 85.016 15.7654 84.3839 16.1826C83.758 16.5939 83.2763 17.1304 82.9388 17.792C82.6013 18.4537 82.4326 19.163 82.4326 19.92V21.136C82.4326 22.1732 82.6167 23.0524 82.9849 23.7736C83.3592 24.4889 83.8777 25.0343 84.5404 25.4099C85.2031 25.7794 85.9732 25.9642 86.8507 25.9642C87.4214 25.9642 87.9368 25.8867 88.3971 25.7317C88.8634 25.5708 89.2653 25.3324 89.6028 25.0165C89.9403 24.6946 90.2011 24.2952 90.3852 23.8183L92.4838 24.3906C92.2629 25.082 91.8917 25.69 91.3701 26.2146C90.8485 26.7332 90.2042 27.1385 89.4372 27.4306C88.6701 27.7167 87.808 27.8597 86.8507 27.8597Z" fill="url(#paint7_linear_57_42298)"/>
<path d="M96.0091 27.5736V13.84H98.1077V15.9144H98.255C98.5127 15.2349 98.9791 14.6835 99.6541 14.2603C100.329 13.8371 101.09 13.6255 101.937 13.6255C102.096 13.6255 102.296 13.6284 102.535 13.6344C102.774 13.6404 102.955 13.6493 103.078 13.6612V15.8071C103.004 15.7892 102.836 15.7624 102.572 15.7266C102.314 15.6849 102.041 15.664 101.753 15.664C101.065 15.664 100.452 15.8041 99.9118 16.0843C99.3779 16.3585 98.9545 16.74 98.6416 17.2287C98.3348 17.7116 98.1814 18.2629 98.1814 18.8828V27.5736H96.0091Z" fill="url(#paint8_linear_57_42298)"/>
<path d="M109.629 27.8776C108.733 27.8776 107.924 27.7167 107.199 27.3948C106.475 27.067 105.902 26.5931 105.478 25.9732C105.061 25.3532 104.852 24.5932 104.852 23.6932C104.852 22.9183 105.006 22.2805 105.313 21.7798C105.619 21.2791 106.034 20.8827 106.555 20.5906C107.077 20.2985 107.66 20.078 108.304 19.929C108.948 19.7799 109.605 19.6667 110.274 19.5892C111.121 19.4938 111.808 19.4163 112.335 19.3567C112.863 19.2912 113.247 19.1868 113.486 19.0438C113.725 18.9007 113.845 18.6683 113.845 18.3464V18.2838C113.845 17.5029 113.618 16.8979 113.164 16.4687C112.716 16.0396 112.047 15.825 111.157 15.825C110.231 15.825 109.501 16.0247 108.967 16.424C108.439 16.8174 108.074 17.2556 107.871 17.7384L105.285 17.1661C105.592 16.3316 106.04 15.6581 106.629 15.1454C107.224 14.6269 107.908 14.2513 108.681 14.0189C109.454 13.7804 110.268 13.6612 111.121 13.6612C111.685 13.6612 112.283 13.7268 112.915 13.8579C113.554 13.9831 114.149 14.2156 114.701 14.5553C115.259 14.8951 115.717 15.3809 116.072 16.0127C116.428 16.6386 116.606 17.4523 116.606 18.4537V27.5736H113.919V25.696H113.808C113.63 26.0417 113.363 26.3815 113.007 26.7153C112.652 27.0491 112.194 27.3262 111.636 27.5468C111.078 27.7673 110.409 27.8776 109.629 27.8776ZM110.228 25.7317C110.989 25.7317 111.639 25.5857 112.179 25.2936C112.725 25.0016 113.139 24.6201 113.422 24.1492C113.71 23.6723 113.854 23.1627 113.854 22.6202V20.8499C113.756 20.9453 113.566 21.0347 113.284 21.1181C113.007 21.1956 112.691 21.2642 112.335 21.3238C111.98 21.3774 111.633 21.4281 111.295 21.4758C110.958 21.5175 110.676 21.5533 110.449 21.5831C109.915 21.6486 109.427 21.7589 108.985 21.9139C108.549 22.0689 108.2 22.2924 107.936 22.5845C107.678 22.8706 107.549 23.2521 107.549 23.7289C107.549 24.3906 107.801 24.8913 108.304 25.231C108.807 25.5648 109.448 25.7317 110.228 25.7317Z" fill="url(#paint9_linear_57_42298)"/>
<path d="M120.134 27.5736V13.84H123.466V27.5736H120.134ZM121.809 11.8909C121.281 11.8909 120.827 11.721 120.447 11.3812C120.066 11.0355 119.876 10.6212 119.876 10.1384C119.876 9.64963 120.066 9.23536 120.447 8.8956C120.827 8.54988 121.281 8.37701 121.809 8.37701C122.343 8.37701 122.797 8.54988 123.171 8.8956C123.552 9.23536 123.742 9.64963 123.742 10.1384C123.742 10.6212 123.552 11.0355 123.171 11.3812C122.797 11.721 122.343 11.8909 121.809 11.8909Z" fill="url(#paint10_linear_57_42298)"/>
<path d="M134.265 13.84V16.7012H125.751V13.84H134.265ZM127.684 10.5497H131.605V23.3534C131.605 23.7051 131.66 23.9793 131.771 24.176C131.881 24.3667 132.035 24.5009 132.231 24.5783C132.433 24.6558 132.667 24.6946 132.93 24.6946C133.114 24.6946 133.299 24.6797 133.483 24.6499C133.667 24.6141 133.808 24.5873 133.906 24.5694L134.523 27.4037C134.326 27.4633 134.05 27.5319 133.694 27.6094C133.338 27.6928 132.906 27.7435 132.397 27.7614C131.452 27.7971 130.623 27.675 129.911 27.3948C129.206 27.1146 128.656 26.6795 128.264 26.0894C127.871 25.4993 127.678 24.7542 127.684 23.8541V10.5497Z" fill="url(#paint11_linear_57_42298)"/>
<path d="M143.29 27.8329C141.811 27.8329 140.535 27.5498 139.461 26.9835C138.393 26.4113 137.571 25.5976 136.994 24.5426C136.423 23.4816 136.138 22.2209 136.138 20.7605C136.138 19.3418 136.427 18.102 137.003 17.041C137.58 15.974 138.393 15.1454 139.443 14.5553C140.492 13.9593 141.728 13.6612 143.152 13.6612C144.158 13.6612 145.079 13.8132 145.913 14.1172C146.748 14.4212 147.469 14.8713 148.076 15.4673C148.684 16.0634 149.156 16.7996 149.494 17.6758C149.831 18.5461 150 19.5445 150 20.6711V21.7619H137.712V19.2226H145.812C145.806 18.7577 145.692 18.3434 145.471 17.9798C145.251 17.6162 144.947 17.333 144.56 17.1304C144.18 16.9218 143.741 16.8174 143.244 16.8174C142.741 16.8174 142.29 16.9277 141.891 17.1483C141.492 17.3629 141.176 17.6579 140.943 18.0334C140.71 18.403 140.587 18.8232 140.575 19.2941V21.8781C140.575 22.4384 140.688 22.9302 140.915 23.3534C141.142 23.7707 141.464 24.0955 141.882 24.328C142.299 24.5605 142.796 24.6767 143.373 24.6767C143.772 24.6767 144.134 24.623 144.459 24.5158C144.784 24.4085 145.063 24.2505 145.297 24.0419C145.53 23.8332 145.705 23.5769 145.821 23.2729L149.954 23.3892C149.782 24.2892 149.405 25.0731 148.822 25.7407C148.245 26.4023 147.487 26.9179 146.548 27.2875C145.61 27.6511 144.523 27.8329 143.29 27.8329Z" fill="url(#paint12_linear_57_42298)"/>
<defs>
<linearGradient id="paint0_linear_57_42298" x1="-6.00484" y1="38.3244" x2="37.7106" y2="20.3631" gradientUnits="userSpaceOnUse">
<stop offset="0.147233" stop-color="#FBA82B"/>
<stop offset="0.40215" stop-color="#BE40C0"/>
<stop offset="0.666667" stop-color="#505ADD"/>
<stop offset="1" stop-color="#38D1BC"/>
</linearGradient>
<linearGradient id="paint1_linear_57_42298" x1="-6.00484" y1="38.3244" x2="37.7106" y2="20.3631" gradientUnits="userSpaceOnUse">
<stop offset="0.147233" stop-color="#FBA82B"/>
<stop offset="0.40215" stop-color="#BE40C0"/>
<stop offset="0.666667" stop-color="#505ADD"/>
<stop offset="1" stop-color="#38D1BC"/>
</linearGradient>
<linearGradient id="paint2_linear_57_42298" x1="-6.00484" y1="38.3244" x2="37.7106" y2="20.3631" gradientUnits="userSpaceOnUse">
<stop offset="0.147233" stop-color="#FBA82B"/>
<stop offset="0.40215" stop-color="#BE40C0"/>
<stop offset="0.666667" stop-color="#505ADD"/>
<stop offset="1" stop-color="#38D1BC"/>
</linearGradient>
<linearGradient id="paint3_linear_57_42298" x1="35.7822" y1="27.8234" x2="90.8398" y2="-39.8258" gradientUnits="userSpaceOnUse">
<stop stop-color="#38D1BC"/>
<stop offset="0.801215" stop-color="#119CD3"/>
</linearGradient>
<linearGradient id="paint4_linear_57_42298" x1="35.7822" y1="27.8234" x2="90.8398" y2="-39.8258" gradientUnits="userSpaceOnUse">
<stop stop-color="#38D1BC"/>
<stop offset="0.801215" stop-color="#119CD3"/>
</linearGradient>
<linearGradient id="paint5_linear_57_42298" x1="35.7822" y1="27.8234" x2="90.8398" y2="-39.8258" gradientUnits="userSpaceOnUse">
<stop stop-color="#38D1BC"/>
<stop offset="0.801215" stop-color="#119CD3"/>
</linearGradient>
<linearGradient id="paint6_linear_57_42298" x1="35.7822" y1="27.8234" x2="90.8398" y2="-39.8258" gradientUnits="userSpaceOnUse">
<stop stop-color="#38D1BC"/>
<stop offset="0.801215" stop-color="#119CD3"/>
</linearGradient>
<linearGradient id="paint7_linear_57_42298" x1="35.7822" y1="27.8234" x2="90.8398" y2="-39.8258" gradientUnits="userSpaceOnUse">
<stop stop-color="#38D1BC"/>
<stop offset="0.801215" stop-color="#119CD3"/>
</linearGradient>
<linearGradient id="paint8_linear_57_42298" x1="35.7822" y1="27.8234" x2="90.8398" y2="-39.8258" gradientUnits="userSpaceOnUse">
<stop stop-color="#38D1BC"/>
<stop offset="0.801215" stop-color="#119CD3"/>
</linearGradient>
<linearGradient id="paint9_linear_57_42298" x1="35.7822" y1="27.8234" x2="90.8398" y2="-39.8258" gradientUnits="userSpaceOnUse">
<stop stop-color="#38D1BC"/>
<stop offset="0.801215" stop-color="#119CD3"/>
</linearGradient>
<linearGradient id="paint10_linear_57_42298" x1="35.7822" y1="27.8234" x2="90.8398" y2="-39.8258" gradientUnits="userSpaceOnUse">
<stop stop-color="#38D1BC"/>
<stop offset="0.801215" stop-color="#119CD3"/>
</linearGradient>
<linearGradient id="paint11_linear_57_42298" x1="35.7822" y1="27.8234" x2="90.8398" y2="-39.8258" gradientUnits="userSpaceOnUse">
<stop stop-color="#38D1BC"/>
<stop offset="0.801215" stop-color="#119CD3"/>
</linearGradient>
<linearGradient id="paint12_linear_57_42298" x1="35.7822" y1="27.8234" x2="90.8398" y2="-39.8258" gradientUnits="userSpaceOnUse">
<stop stop-color="#38D1BC"/>
<stop offset="0.801215" stop-color="#119CD3"/>
</linearGradient>
</defs>
</svg>
